<?xml version="1.0" encoding="UTF-8"?>
<!DOCTYPE svg PUBLIC "-//W3C//DTD SVG 1.1//EN" "http://www.w3.org/Graphics/SVG/1.1/DTD/svg11.dtd">
<!-- Creator: CorelDRAW 2021.5 -->
<svg xmlns="http://www.w3.org/2000/svg" xml:space="preserve" width="291.882mm" height="26.7949mm" version="1.1" style="shape-rendering:geometricPrecision; text-rendering:geometricPrecision; image-rendering:optimizeQuality; fill-rule:evenodd; clip-rule:evenodd"
viewBox="0 0 28783.92 2642.37"
 xmlns:xlink="http://www.w3.org/1999/xlink"
 xmlns:xodm="http://www.corel.com/coreldraw/odm/2003">
 <defs>
  <style type="text/css">
   <![CDATA[
    .fil5 {fill:#29547B}
    .fil1 {fill:#BDBFC1;fill-rule:nonzero}
    .fil2 {fill:#F79233;fill-rule:nonzero}
    .fil0 {fill:#29547B;fill-rule:nonzero}
    .fil4 {fill:#29547B;fill-rule:nonzero}
    .fil3 {fill:#F79233;fill-rule:nonzero;fill-opacity:0.301961}
   ]]>
  </style>
 </defs>
 <g id="Capa_x0020_1">
  <metadata id="CorelCorpID_0Corel-Layer"/>
  <path class="fil0" d="M18312.82 3.47l214.06 0c43.41,0 79.84,17.98 109.04,54.15 7.73,10.73 17.45,27.19 29.18,49.65 2,2.98 3.75,5.73 4.99,8.73 4.49,6.73 41.91,72.6 112.78,197.35 19.96,35.68 42.66,76.1 68.61,121.26 160.43,283.17 242.76,427.88 247,434.36l85.58 152.7 -225.05 0c-59.62,0 -103.28,-27.95 -131.73,-84.08 -19.95,-34.18 -34.43,-59.38 -43.9,-76.1 -7.74,-13.97 -11.98,-21.71 -12.98,-22.45l-322.08 -652.55c-0.42,-0.89 -378.75,652.81 -380,653.81 -1.24,1 -1.99,3 -2.49,5.99l-65.86 115.52c-29.68,39.92 -69.11,59.88 -118.51,59.88l-222.8 0c-1.01,0 -1.5,0 -1.5,-0.26 0,-0.25 0,-0.75 0,-1.24 107.54,-190.61 201.34,-355.78 281.43,-495.49 63.37,-111.52 114.52,-201.84 153.44,-270.45 60.37,-106.79 92.06,-162.42 95.05,-166.67 7.74,-14.72 15.97,-27.69 24.95,-38.67 28.19,-30.43 61.87,-45.41 100.79,-45.41z"/>
  <path class="fil0" d="M24257.24 3.47l214.06 0c43.41,0 79.84,17.98 109.04,54.15 7.73,10.73 17.45,27.19 29.18,49.65 2,2.98 3.75,5.73 4.99,8.73 4.49,6.73 41.91,72.6 112.78,197.35 19.96,35.68 42.66,76.1 68.61,121.26 160.43,283.17 242.76,427.88 247,434.36l85.58 152.7 -225.05 0c-59.62,0 -103.28,-27.95 -131.73,-84.08 -19.95,-34.18 -34.43,-59.38 -43.9,-76.1 -7.74,-13.97 -11.97,-21.71 -12.98,-22.45l-322.08 -652.55c-0.42,-0.89 -378.75,652.81 -380,653.81 -1.24,1 -1.99,3 -2.49,5.99l-65.86 115.52c-29.68,39.92 -69.11,59.88 -118.51,59.88l-222.8 0c-1.01,0 -1.5,0 -1.5,-0.26 0,-0.25 0,-0.75 0,-1.24 107.54,-190.61 201.34,-355.78 281.43,-495.49 63.37,-111.52 114.52,-201.84 153.44,-270.45 60.37,-106.79 92.06,-162.42 95.05,-166.67 7.74,-14.72 15.97,-27.69 24.95,-38.67 28.19,-30.43 61.87,-45.41 100.79,-45.41z"/>
  <path class="fil0" d="M12416.76 3.47l214.06 0c43.42,0 79.85,17.98 109.04,54.15 7.73,10.73 17.45,27.19 29.18,49.65 2,2.98 3.75,5.73 5,8.73 4.49,6.73 41.91,72.6 112.78,197.35 19.95,35.68 42.65,76.1 68.61,121.26 160.42,283.17 242.75,427.88 247,434.36l85.57 152.7 -225.04 0c-59.63,0 -103.29,-27.95 -131.73,-84.08 -19.96,-34.18 -34.44,-59.38 -43.91,-76.1 -7.74,-13.97 -11.97,-21.71 -12.97,-22.45l-322.08 -652.55c-0.43,-0.89 -378.76,652.81 -380,653.81 -1.25,1 -2,3 -2.49,5.99l-65.87 115.52c-29.68,39.92 -69.11,59.88 -118.51,59.88l-222.8 0c-1,0 -1.5,0 -1.5,-0.26 0,-0.25 0,-0.75 0,-1.24 107.54,-190.61 201.35,-355.78 281.43,-495.49 63.38,-111.52 114.52,-201.84 153.44,-270.45 60.38,-106.79 92.06,-162.42 95.05,-166.67 7.74,-14.72 15.98,-27.69 24.95,-38.67 28.19,-30.43 61.88,-45.41 100.79,-45.41z"/>
  <path class="fil1" d="M2739.33 3.47l214.06 0c43.42,0 79.84,17.98 109.04,54.15 7.73,10.73 17.45,27.19 29.18,49.65 2,2.98 3.75,5.73 5,8.73 4.48,6.73 41.9,72.6 112.78,197.35 19.95,35.68 42.65,76.1 68.6,121.26 160.43,283.17 242.76,427.88 247,434.36l85.58 152.7 -225.05 0c-59.62,0 -103.28,-27.95 -131.73,-84.08 -19.95,-34.18 -34.43,-59.38 -43.9,-76.1 -7.74,-13.97 -11.97,-21.71 -12.97,-22.45l-322.08 -652.55c-0.43,-0.89 -378.76,652.81 -380,653.81 -1.25,1 -2,3 -2.5,5.99l-65.86 115.52c-29.68,39.92 -69.11,59.88 -118.51,59.88l-222.8 0c-1,0 -1.5,0 -1.5,-0.26 0,-0.25 0,-0.75 0,-1.24 107.54,-190.61 201.34,-355.78 281.43,-495.49 63.37,-111.52 114.52,-201.84 153.44,-270.45 60.38,-106.79 92.06,-162.42 95.05,-166.67 7.74,-14.72 15.98,-27.69 24.95,-38.67 28.19,-30.43 61.87,-45.41 100.79,-45.41z"/>
  <path class="fil1" d="M3798.94 3.48l168.91 0c0,2.98 -0.27,5.23 -0.75,7.23 -0.51,1 -0.76,1.76 -0.76,2.25l0 703.06 1.51 1.51 -1.51 0c1.01,1 1.51,1.98 1.51,2.49 0,0.76 0,2 0,3.49l0 34.93 935.58 0 0 161.67c0,44.66 -20.44,76.59 -61.38,95.8 -11.21,3.75 -22.2,5.74 -32.93,5.74l-1008.69 0c-32.93,0 -60.13,-14.46 -81.09,-43.15 -8.72,-13.73 -13.46,-27.21 -14.46,-40.93l0 -7.24 -1.51 -832.56c0,-23.93 9.5,-45.9 28.45,-65.86 19.47,-18.95 41.91,-28.43 67.12,-28.43z"/>
  <path class="fil1" d="M5140.46 3.48l812.09 0c99.8,0 172.41,7.98 217.81,24.2 30.19,10.24 54.88,21.2 74.35,32.68 45.92,27.44 78.35,63.87 97.3,109.78 15.22,37.92 22.71,79.58 22.71,124.98 0,68.63 -20.22,123.51 -60.64,164.42 -16.22,16.21 -28.18,26.45 -35.93,30.7 -11.73,8.22 -22.21,14.46 -31.44,18.19 -5.74,2.51 -8.73,4 -8.73,4.5 10.24,4 22.45,10.24 36.43,18.97 8.98,5.74 20.22,14.97 33.68,27.19 14.72,15.46 25.21,28.45 31.44,38.67 23.44,36.43 35.19,80.83 35.19,132.98 0,54.63 -10.74,103.04 -32.19,145.46 -6.75,12.22 -16.47,25.7 -29.19,40.92 -17.97,17.96 -30.45,29.19 -37.43,33.68 -11.97,8.73 -26.44,17.22 -42.92,25.45 -20.44,10.24 -46.14,19.71 -76.83,28.7 -43.41,11.21 -111.28,16.71 -203.85,16.71l-799.85 0c-25.71,0 -48.91,-10.23 -69.37,-30.68 -9.73,-10.74 -16.72,-22.22 -21.21,-34.44 -3.23,-9.23 -4.99,-22.95 -4.99,-40.91l0 -805.37c0,-21.47 2.25,-37.42 7.24,-47.65 10.23,-22.96 26.2,-39.43 48.15,-49.65 13.22,-6.23 25.95,-9.48 38.17,-9.48zm171.65 239.01l0 171.65c463.06,-2.74 694.35,-4.5 694.35,-4.99 14.21,-1.51 25.19,-3.49 32.92,-5.99 25.45,-7.74 43.91,-19.97 55.64,-36.43 7.74,-12.22 11.73,-25.21 11.73,-38.67l0 -2.25c0,-22.96 -10.47,-43.67 -31.43,-62.13 -13.22,-11.22 -31.68,-19.21 -55.64,-24.21 -9.23,-1.49 -16.97,-2.23 -23.45,-2.23 -35.93,0 -263.97,1.74 -684.11,5.24zm0 377.22l0 185.62 656.42 -5.24c30.19,0 55.88,-7.23 76.83,-21.95 15.98,-11.48 26.94,-26.7 32.68,-45.16 2,-8.23 3.01,-15.73 3.01,-21.96l0 -3.74c0,-23.95 -9.99,-45.4 -29.95,-65.12 -12.72,-10.99 -29.94,-19.47 -51.89,-24.71 -11.22,-1.98 -19.96,-2.98 -26.19,-2.98 -418.65,3.49 -638.95,5.23 -660.91,5.23z"/>
  <path class="fil1" d="M6548.85 3.48l214.07 0c38.42,0 67.86,16.46 87.81,49.65 8.23,14.21 12.24,31.68 12.24,52.63l0 915.89 -219.81 0c-23.94,0 -46.41,-9.98 -67.36,-29.94 -17.96,-18.46 -26.94,-41.91 -26.94,-70.1l0 -918.13z"/>
  <path class="fil1" d="M7181.82 3.48l164.41 0c5.49,0 49.41,35.41 131.74,106.02 82.33,70.61 174.89,151.21 278.18,241.52 103.04,90.32 194.35,170.9 274.44,241.51l119.77 106.03 0 -695.08 164.42 0c34.66,0 61.61,13.72 81.07,40.91 11.74,16.47 17.72,35.44 17.72,56.4l0 822.07c0,32.68 -13.97,60.13 -41.66,82.09 -7.49,4.73 -16.47,8.97 -27.21,12.22 -6.73,3 -19.2,4.49 -37.17,4.49l-154.18 0c-5.99,0 -50.15,-35.43 -132.97,-106.02 -82.84,-70.61 -175.9,-151.21 -279.43,-241.52 -103.29,-90.32 -194.85,-170.9 -274.69,-241.51l-120.01 -105.29 0 694.34 -159.92 0c-23.94,0 -43.4,-4.98 -58.62,-14.72 -17.98,-11.97 -30.95,-28.68 -38.69,-49.65 -3.74,-10.22 -5.74,-21.2 -5.74,-32.93l0 -821.57c0,-32.94 13.23,-59.63 40.18,-79.59 16.46,-13.22 35.93,-19.7 58.38,-19.7z"/>
  <path class="fil0" d="M13499.05 3.48l747.22 0c131.48,0 241.51,28.43 330.33,85.58 14.97,8.72 31.68,21.2 49.65,37.17 72.59,68.85 109.03,154.69 109.03,257.97 0,86.83 -26.45,161.18 -79.1,223.06 -13.72,14.97 -24.94,25.95 -34.43,32.93 -21.71,18.46 -40.93,31.94 -56.88,40.18 -88.32,51.14 -194.36,76.59 -318.6,76.59l-562.84 2.99 -15.48 0 0 165.91c0,31.18 -13.72,57.63 -41.66,79.1 -16.95,11.21 -35.93,16.71 -56.88,16.71l-164.67 0 0 -923.87c0,-26.94 11.97,-51.14 35.93,-73.09 17.98,-14.22 37.42,-21.2 58.39,-21.2zm168.9 263.96l0 230.03 597.28 0c56.89,0 97.82,-11.73 122.76,-35.68 4.5,-4.5 8.98,-9.23 13.97,-14.72 13.48,-18.96 20.46,-40.41 20.46,-64.37 0,-49.65 -24.45,-84.09 -73.1,-103.79 -21.95,-7.73 -49.65,-11.47 -82.58,-11.47l-598.79 0z"/>
  <path class="fil0" d="M15272.44 3.48l524.2 0c88.05,0 170.39,26.45 246.99,79.59 12.71,7.97 28.44,20.44 47.39,38.15 3,2.25 6.24,5 9.49,7.99 23.94,27.21 41.16,48.16 51.89,62.89 51.14,75.59 76.85,158.92 76.85,249.98l0 140.97c0,107.79 -34.94,203.58 -104.55,287.41 -21.94,23.7 -39.91,40.92 -54.13,51.15 -24.45,20.44 -49.41,37.17 -75.34,50.38 -63.38,33.19 -129.98,49.65 -200.1,49.65l-521.19 0c-94.05,0 -180.88,-28.93 -260.22,-87.07 -13.21,-10.24 -31.68,-26.94 -55.64,-50.4 -23.94,-25.7 -40.16,-46.65 -48.89,-62.88 -46.41,-71.6 -69.37,-149.93 -69.37,-235.27l0 -146.95c0,-99.79 31.69,-190.61 95.57,-271.95 9.23,-10.72 24.45,-27.19 45.4,-49.65 20.96,-17.96 38.91,-31.43 54.15,-40.16 74.59,-49.16 153.67,-73.85 237.5,-73.85zm-168.9 442.09l0 133.23c0,35.94 7.48,65.87 22.69,89.83 3,8.73 11.73,21.2 26.2,37.18 34.68,35.17 76.59,52.63 125.74,52.63l512.45 0c57.15,0 103.29,-22.96 138.97,-69.36 10.24,-13.22 18.22,-26.7 23.95,-40.17 7.99,-18.96 11.73,-43.42 11.73,-73.11l0 -124.24c0,-31.68 -3.24,-55.37 -10.23,-70.85 -14.97,-38.67 -40.42,-68.36 -75.84,-89.32 -26.95,-15.97 -55.88,-23.94 -87.07,-23.94l-515.21 0c-56.63,0 -103.54,23.7 -140.46,71.59 -10.24,14.48 -17.22,27.45 -21.2,38.69 -7.74,17.95 -11.73,40.66 -11.73,67.85z"/>
  <path class="fil0" d="M16468.26 3.48l787.14 0c94.06,0 180.4,28.43 258.73,85.58 12.23,8.72 28.94,22.44 49.9,41.66 23.71,25.7 40.18,45.16 48.89,58.38 16.97,25.44 31.69,51.39 43.91,78.34 3.24,9.23 6.98,19.71 10.99,31.44 2.25,7.72 4.99,15.71 7.99,23.94 10.22,36.18 15.22,77.59 15.22,124.24l0 134.47c0,94.07 -25.45,177.9 -76.59,251.49 -8.74,13.73 -24.2,32.7 -46.16,57.15 -20.96,19.96 -38.92,35.18 -54.14,45.9 -15.98,11.73 -33.17,22.71 -51.14,32.95 -64.87,35.17 -134.48,52.63 -209.07,52.63l-781.41 0c-23.71,0 -45.16,-8.98 -64.11,-26.94 -12.24,-13.22 -19.71,-24.2 -22.71,-32.94 -1.49,-2.99 -3,-7.48 -4.5,-13.21l-4.24 0 0 -845.78c0,-35.93 15.72,-64.38 47.4,-85.33 17.22,-9.48 31.69,-13.96 43.91,-13.96zm171.65 263.96l0 490.99 618.5 0c41.91,0 79.08,-14.97 111.76,-45.16 14.72,-14.22 23.2,-23.7 25.7,-28.7 20.96,-30.19 31.43,-61.11 31.43,-92.81l0 -158.42c0,-36.18 -12.46,-70.12 -37.41,-101.79 -13.48,-15.46 -24.94,-26.45 -34.17,-32.68 -12.24,-8.49 -24.21,-14.97 -35.94,-19.97 -20.46,-7.73 -43.42,-11.47 -68.62,-11.47l-611.25 0z"/>
  <path class="fil0" d="M19651.55 3.48l782.9 0c35.93,0 64.62,15.46 85.58,46.64 9.23,16.22 13.73,32.95 13.73,50.66l0 166.66 -877.71 0c-56.63,0 -102.8,22.7 -138.97,68.61 -22.96,30.2 -34.44,64.12 -34.44,101.53l0 149.96c0,44.64 15.97,84.32 47.65,118.26 14.97,14.21 27.2,23.69 36.44,28.68 8.96,5.74 18.71,10.24 29.43,12.99 20.46,7.48 35.94,10.97 46.65,10.97l888.94 0 0 168.92c0,26.7 -11.97,51.14 -35.93,73.09 -18.46,14.22 -38.92,21.2 -61.38,21.2l-784.39 0c-89.58,0 -173.4,-27.44 -251.24,-82.57 -13.23,-9.24 -31.68,-25.21 -55.64,-47.66 -24.96,-26.7 -41.66,-47.65 -50.4,-62.62 -14.71,-22.46 -25.7,-41.91 -32.93,-58.64 -27.45,-56.39 -40.92,-119.75 -40.92,-190.11l0 -134.48c0,-76.35 16.46,-145.45 49.65,-206.82 8.72,-17.45 20.69,-37.41 35.93,-59.88 3.74,-4.5 7.97,-9.23 12.22,-14.72 7.49,-8.73 15.72,-18.2 24.95,-28.44 25.95,-25.2 46.9,-42.91 62.88,-52.63 27.19,-19.47 54.39,-34.94 81.08,-46.66 55.64,-21.96 110.76,-32.93 165.91,-32.93z"/>
  <path class="fil0" d="M21077.66 3.48l502.71 0c60.14,0 113.03,8.98 158.68,26.94 29.7,11.73 59.62,27.44 89.81,46.91 15.24,8.73 32.43,22.2 52.15,40.16 19.47,18.97 32.95,32.95 40.93,41.66 10.22,13.23 18.47,24.46 24.7,33.69 1.99,2.24 3.74,4.73 5.23,7.23 14.48,22.46 26.45,44.91 35.68,67.37 8.74,16.96 16.97,40.92 24.21,71.59 7.73,31.69 11.72,69.12 11.72,112.52l0 231.78 -263.95 0c-0.5,0 -0.75,-0.25 -0.75,-0.49 0,-0.25 0,-0.25 -0.25,-0.25 -0.25,0 -0.5,-0.27 -0.5,-0.76l0 -245.75c0,-32.68 -9.98,-64.38 -29.95,-95.55 -4.23,-6.49 -12.71,-15.98 -24.69,-28.7 -17.71,-14.97 -33.68,-24.96 -48.4,-29.94 -20.96,-8.73 -41.92,-13.21 -62.88,-13.21l-526.92 0c-31.18,0 -62.13,9.48 -92.81,28.68 -5.99,3.76 -14.97,11.73 -26.94,23.95 -14.72,16.22 -25.71,32.43 -32.95,49.15 -8.72,19.97 -13.21,44.91 -13.21,75.1l0 134.48c0,34.19 6.48,63.62 19.71,88.58 5.47,11.73 16.21,25.43 32.93,41.65 32.68,32.19 72.85,48.15 120.51,48.15l711.29 0c24.47,0 52.15,-0.25 83.33,-0.75 38.93,-0.49 83.09,-0.74 132.23,-0.74 31.69,0 60.14,11.97 85.58,35.93 10.24,11.73 16.73,21.2 19.71,28.43 9.73,17.22 14.72,35.44 14.72,54.9l0 145.45 -1048.36 0c-104.8,0 -198.34,-33.92 -281.18,-101.54 -7.48,-6.48 -20.96,-19.45 -40.42,-39.43 -76.84,-84.82 -115.26,-184.11 -115.26,-297.63l0 -142.46c0,-97.06 28.94,-184.63 86.83,-263.21 7.23,-10.24 21.45,-25.7 42.4,-46.65 22.46,-22.46 41.17,-38.42 56.39,-47.65 23.71,-16.97 47.9,-30.95 72.34,-41.66 17.98,-7.74 37.43,-14.72 58.39,-21.22 37.93,-11.21 80.33,-16.71 127.25,-16.71z"/>
  <path class="fil0" d="M22620.51 1021.65c-37.42,-1.49 -65.12,-3 -82.58,-4.49 -13.73,0 -41.17,-4.5 -82.58,-13.73 -31.19,-7.72 -55.15,-15.71 -71.6,-23.45 -22.96,-10.23 -45.92,-25.94 -68.87,-46.64 -59.87,-53.65 -89.81,-147.96 -89.81,-282.93l5.99 -516.2c0,-34.44 9.48,-63.13 28.45,-85.33 26.18,-30.43 58.12,-45.4 95.79,-45.4l145.46 0 0 681.1c0,7.99 1.75,16.48 5.74,25.7 13.21,26.7 33.17,40.17 59.87,40.17l676.87 0c19.47,0 36.43,-8.47 50.39,-25.69 10.24,-10.24 15.48,-26.45 15.48,-48.9l0 -670.89c0,-0.49 0,-1 0,-1.24 0,-0.25 0.49,-0.25 1.49,-0.25l144.71 0c16.47,0 32.68,3.74 48.14,10.97 30.19,12.73 52.15,34.68 65.87,65.87 4.24,11.48 7.23,23.44 8.74,35.68 4.49,319.6 6.48,499.73 6.48,540.15 0,73.59 -10.48,137.46 -31.44,191.6 -5.23,13.97 -13.21,29.7 -23.94,46.65 -16.21,23.45 -36.18,43.91 -60.13,61.38 -19.96,12.72 -40.42,23.2 -61.38,31.44 -20.96,8.74 -52.39,16.96 -94.32,24.2 -48.14,6.74 -88.05,10.23 -119.76,10.23l-573.07 0z"/>
  <polygon class="fil2" points="-0,1444.89 28783.92,1444.89 28778.63,1357.78 -0,1357.4 "/>
  <path class="fil3" d="M1208.77 824.19l0 548.4 -532.33 0c0,0 12.91,475.33 530.81,518.08l1.52 -518.08 532.41 0c0,0 -4.03,-552.32 -532.41,-548.4z"/>
  <path class="fil2" d="M1207.25 1944.44c-321.42,0 -582.89,-261.41 -582.89,-582.89 0,-321.34 261.48,-582.73 582.89,-582.73 321.37,0 582.81,261.4 582.81,582.73 0,321.48 -261.45,582.89 -582.81,582.89zm0 -1085.11l0 0c-276.94,0 -502.29,225.35 -502.29,502.22 0,277.02 225.35,502.36 502.29,502.36 276.98,0 502.28,-225.34 502.28,-502.36 0,-276.86 -225.31,-502.22 -502.28,-502.22z"/>
  <polygon class="fil2" points="1164.31,5.31 1164.31,2628.95 1251.88,2626.42 1252.33,5.31 "/>
  <path class="fil4" d="M2090.94 2632.79l79.83 0 0 -368.26 316.1 0 0 -72.37 -316.1 0 0 -274.59 335.26 0 0 -73.43 -415.09 0 0 788.65zm814.21 -835.49l70.24 0 138.36 -164.97 -87.27 0 -121.33 164.97zm-219.26 835.49l77.69 0 53.22 -180.94 300.14 0 54.27 180.94 80.9 0 -242.67 -793.98 -81.95 0 -241.61 793.98zm152.2 -253.3l129.84 -425.73 127.73 425.73 -257.56 0zm702.43 253.3l243.73 0c140.49,0 232.02,-51.08 232.02,-216.06 0,-122.4 -42.56,-177.73 -114.94,-197.97 59.59,-21.29 98.97,-72.37 98.97,-177.73 0,-144.76 -77.7,-196.89 -222.44,-196.89l-237.35 0 0 788.65zm78.75 -69.19l0 -303.33 163.92 0c91.53,0 153.26,30.88 153.26,151.15 0,120.26 -61.72,152.18 -153.26,152.18l-163.92 0zm0 -375.7l0 -273.52 155.39 0c91.54,0 145.83,28.74 145.83,136.23 0,107.5 -54.29,137.29 -145.83,137.29l-155.39 0zm1086.67 444.89l84.09 0 -149.02 -324.62c109.63,-22.35 158.59,-101.11 158.59,-234.14 0,-157.52 -69.18,-229.89 -224.58,-229.89l-252.24 0 0 788.65 78.75 0 0 -319.3 158.59 0 145.8 319.3zm-304.39 -391.68l0 -324.6 171.35 0c102.17,0 147.94,42.56 147.94,160.71 0,120.25 -45.77,163.89 -147.94,163.89l-171.35 0zm719.46 391.68l79.83 0 0 -788.65 -79.83 0 0 788.65zm665.2 8.52c95.77,0 147.94,-20.23 200.08,-53.21l-39.38 -61.74c-43.64,26.62 -84.07,42.58 -157.52,42.58 -163.9,0 -200.08,-113.88 -200.08,-328.88 0,-215 37.25,-326.75 200.08,-326.75 69.19,0 114.96,18.11 143.69,35.14l42.57 -65.99c-39.38,-25.54 -100.04,-46.83 -185.19,-46.83 -237.35,0 -282.06,160.7 -282.06,403.38 0,245.85 48.97,402.31 277.8,402.31zm436.35 -8.52l77.7 0 53.21 -180.94 300.14 0 54.28 180.94 80.89 0 -242.66 -793.98 -81.96 0 -241.61 793.98zm152.2 -253.3l129.85 -425.73 127.72 425.73 -257.56 0zm897.21 253.3l208.61 0c255.43,0 304.38,-136.23 304.38,-394.86 0,-253.3 -50.02,-393.79 -297.99,-393.79l-215 0 0 788.65zm79.83 -70.24l0 -644.98 138.36 0c185.19,0 213.93,114.95 213.93,321.43 0,208.6 -29.8,323.55 -218.19,323.55l-134.1 0zm735.44 70.24l417.21 0 0 -72.37 -339.52 0 0 -300.14 318.23 0 0 -73.43 -318.23 0 0 -269.28 336.34 0 0 -73.43 -414.02 0 0 788.65zm876.98 0l77.7 0 53.21 -180.94 300.14 0 54.28 180.94 80.89 0 -242.66 -793.98 -81.96 0 -241.61 793.98zm152.2 -253.3l129.84 -425.73 127.73 425.73 -257.56 0zm931.27 262.89c202.23,0 256.5,-97.91 256.5,-267.15l0 -531.09 -76.62 0 0 525.77c0,129.84 -37.26,199.02 -179.87,199.02 -142.61,0 -178.8,-70.24 -178.8,-199.02l0 -525.77 -79.83 0 0 531.09c0,170.29 57.46,267.15 258.63,267.15zm760.98 -9.59l80.88 0 0 -715.22 224.58 0 0 -73.43 -528.96 0 0 73.43 223.5 0 0 715.22zm814.19 8.52c258.64,0 288.44,-182.01 288.44,-402.31 0,-220.32 -29.8,-403.38 -288.44,-403.38 -260.75,0 -290.56,183.07 -290.56,403.38 0,220.3 29.81,402.31 290.56,402.31zm0 -72.37c-191.57,0 -209.66,-141.56 -209.66,-327.83 0,-186.24 18.1,-328.86 209.66,-328.86 188.39,0 208.61,142.62 208.61,328.86 0,186.26 -19.16,327.83 -208.61,327.83zm590.7 63.85l78.75 0 0 -315.03 173.49 0c157.52,0 227.76,-80.88 227.76,-240.53 0,-160.71 -70.24,-233.09 -225.63,-233.09l-254.38 0 0 788.65zm78.75 -387.41l0 -328.87 172.42 0c102.18,0 150.07,41.51 150.07,163.9 0,122.4 -47.89,164.97 -150.07,164.97l-172.42 0zm570.48 387.41l77.69 0 53.22 -180.94 300.13 0 54.28 180.94 80.89 0 -242.66 -793.98 -81.96 0 -241.6 793.98zm152.19 -253.3l129.85 -425.73 127.72 425.73 -257.56 0zm1085.6 253.3l84.08 0 -149.01 -324.62c109.62,-22.35 158.59,-101.11 158.59,-234.14 0,-157.52 -69.19,-229.89 -224.58,-229.89l-252.25 0 0 788.65 78.75 0 0 -319.3 158.59 0 145.81 319.3zm-304.4 -391.68l0 -324.6 171.36 0c102.16,0 147.93,42.56 147.93,160.71 0,120.25 -45.77,163.89 -147.93,163.89l-171.36 0zm867.43 391.68l80.88 0 0 -715.22 224.58 0 0 -73.43 -528.97 0 0 73.43 223.51 0 0 715.22zm591.76 0l417.21 0 0 -72.37 -339.52 0 0 -300.14 318.23 0 0 -73.43 -318.23 0 0 -269.28 336.34 0 0 -73.43 -414.02 0 0 788.65zm918.5 8.52c156.45,0 238.4,-77.71 238.4,-204.36 0,-137.28 -69.18,-177.73 -220.32,-247.98 -119.21,-56.41 -153.27,-79.83 -153.27,-158.58 0,-70.24 44.71,-119.22 145.81,-119.22 70.24,0 121.34,13.85 162.85,34.06l34.06 -69.18c-52.16,-24.48 -112.83,-40.44 -197.97,-40.44 -149,0 -223.5,77.69 -223.5,196.89 0,121.33 70.24,167.09 195.83,223.52 125.59,57.46 177.74,84.07 177.74,181.99 0,84.07 -54.29,133.04 -160.71,133.04 -96.85,0 -163.91,-31.94 -201.15,-53.21l-40.45 61.72c48.96,29.79 126.65,61.73 242.67,61.73zm737.57 -8.52l407.62 0 0 -72.37 -327.81 0 0 -716.28 -79.82 0 0 788.65zm699.23 0l79.83 0 0 -788.65 -79.83 0 0 788.65zm615.17 5.33l81.96 0 240.53 -793.98 -79.83 0 -200.08 673.72 -203.28 -673.72 -79.83 0 240.53 793.98zm617.3 -5.33l79.82 0 0 -788.65 -79.82 0 0 788.65zm374.63 0l77.7 0 53.21 -180.94 300.14 0 54.28 180.94 80.89 0 -242.66 -793.98 -81.96 0 -241.61 793.98zm152.2 -253.3l129.84 -425.73 127.73 425.73 -257.56 0zm702.44 253.3l75.56 0 0 -652.43 356.55 652.43 74.5 0 0 -788.65 -76.63 0 0 630.08 -342.71 -630.08 -87.27 0 0 788.65zm1098.36 8.52c258.64,0 288.43,-182.01 288.43,-402.31 0,-220.32 -29.79,-403.38 -288.43,-403.38 -260.75,0 -290.56,183.07 -290.56,403.38 0,220.3 29.81,402.31 290.56,402.31zm0 -72.37c-191.58,0 -209.66,-141.56 -209.66,-327.83 0,-186.24 18.09,-328.86 209.66,-328.86 188.38,0 208.6,142.62 208.6,328.86 0,186.26 -19.15,327.83 -208.6,327.83zm775.88 72.37c156.46,0 238.41,-77.71 238.41,-204.36 0,-137.28 -69.18,-177.73 -220.32,-247.98 -119.21,-56.41 -153.27,-79.83 -153.27,-158.58 0,-70.24 44.71,-119.22 145.81,-119.22 70.24,0 121.34,13.85 162.85,34.06l34.06 -69.18c-52.16,-24.48 -112.83,-40.44 -197.97,-40.44 -149,0 -223.5,77.69 -223.5,196.89 0,121.33 70.24,167.09 195.83,223.52 125.59,57.46 177.74,84.07 177.74,181.99 0,84.07 -54.29,133.04 -160.71,133.04 -96.85,0 -163.91,-31.94 -201.15,-53.21l-40.45 61.72c48.96,29.79 126.65,61.73 242.66,61.73zm918.5 -8.52l78.76 0 0 -290.56 242.67 -498.09 -81.96 0 -199.02 409.76 -197.96 -409.76 -86.21 0 243.72 498.09 0 290.56zm791.85 0l78.75 0 0 -315.03 173.48 0c157.53,0 227.77,-80.88 227.77,-240.53 0,-160.71 -70.24,-233.09 -225.64,-233.09l-254.37 0 0 788.65zm78.75 -387.41l0 -328.87 172.42 0c102.18,0 150.07,41.51 150.07,163.9 0,122.4 -47.89,164.97 -150.07,164.97l-172.42 0zm703.51 387.41l417.21 0 0 -72.37 -339.51 0 0 -300.14 318.22 0 0 -73.43 -318.22 0 0 -269.28 336.33 0 0 -73.43 -414.02 0 0 788.65zm918.5 8.52c156.46,0 238.4,-77.71 238.4,-204.36 0,-137.28 -69.18,-177.73 -220.32,-247.98 -119.21,-56.41 -153.26,-79.83 -153.26,-158.58 0,-70.24 44.7,-119.22 145.8,-119.22 70.25,0 121.34,13.85 162.86,34.06l34.05 -69.18c-52.16,-24.48 -112.83,-40.44 -197.97,-40.44 -149,0 -223.5,77.69 -223.5,196.89 0,121.33 70.24,167.09 195.84,223.52 125.58,57.46 177.73,84.07 177.73,181.99 0,84.07 -54.29,133.04 -160.71,133.04 -96.85,0 -163.91,-31.94 -201.15,-53.21l-40.44 61.72c48.95,29.79 126.65,61.73 242.66,61.73zm473.62 -8.52l77.69 0 53.22 -180.94 300.13 0 54.28 180.94 80.89 0 -242.66 -793.98 -81.95 0 -241.61 793.98zm152.2 -253.3l129.84 -425.73 127.73 425.73 -257.56 0zm702.43 253.3l208.61 0c255.43,0 304.38,-136.23 304.38,-394.86 0,-253.3 -50.01,-393.79 -297.99,-393.79l-215 0 0 788.65zm79.83 -70.24l0 -644.98 138.36 0c185.19,0 213.93,114.95 213.93,321.43 0,208.6 -29.79,323.55 -218.19,323.55l-134.1 0zm990.87 78.76c258.63,0 288.43,-182.01 288.43,-402.31 0,-220.32 -29.8,-403.38 -288.43,-403.38 -260.75,0 -290.56,183.07 -290.56,403.38 0,220.3 29.81,402.31 290.56,402.31zm0 -72.37c-191.58,0 -209.66,-141.56 -209.66,-327.83 0,-186.24 18.09,-328.86 209.66,-328.86 188.38,0 208.6,142.62 208.6,328.86 0,186.26 -19.15,327.83 -208.6,327.83zm775.88 72.37c156.46,0 238.41,-77.71 238.41,-204.36 0,-137.28 -69.18,-177.73 -220.32,-247.98 -119.21,-56.41 -153.27,-79.83 -153.27,-158.58 0,-70.24 44.71,-119.22 145.81,-119.22 70.24,0 121.34,13.85 162.85,34.06l34.06 -69.18c-52.16,-24.48 -112.83,-40.44 -197.97,-40.44 -149,0 -223.51,77.69 -223.51,196.89 0,121.33 70.25,167.09 195.84,223.52 125.59,57.46 177.74,84.07 177.74,181.99 0,84.07 -54.29,133.04 -160.71,133.04 -96.85,0 -163.91,-31.94 -201.15,-53.21l-40.45 61.72c48.96,29.79 126.65,61.73 242.66,61.73z"/>
  <path class="fil1" d="M25581.45 6.11l928.12 0c25.44,0 49.39,8.48 71.59,25.45 28.93,24.94 43.17,56.88 43.17,95.79l0 142.73 -1.51 0c-68.1,0.74 -212.32,1.24 -432.62,1.24 -173.38,0.99 -307.87,1.49 -403.42,1.49 -100.04,1.01 -167.91,1.5 -204.08,1.5 -7.24,0 -13.73,2.49 -19.71,7.23 -4.74,5 -7.23,11.99 -7.23,21.22l0 55.64c0,13.21 5.49,22.2 16.71,26.94 1.51,0.49 2.75,1 3.76,1.24 0.99,0.25 2.25,0.25 3.74,0.25 221.05,-1 347.28,-1.49 378.47,-1.49 7.99,0 21.95,-0.25 42.41,-0.76 57.64,-0.74 166.67,-1.24 327.58,-1.24l5.74 0c20.96,0 48.89,2.49 84.09,7.98 25.44,4.25 46.4,9.74 62.87,15.98 52.64,20.46 90.31,52.9 113.27,97.3 19.96,38.91 29.95,87.07 29.95,143.96l0 104.53c0,103.29 -30.45,176.15 -91.32,218.56 -49.16,35.18 -122.51,52.64 -220.06,52.64l-904.16 0c-34.18,0 -63.87,-14.47 -89.07,-43.16 -18.2,-21.46 -27.19,-46.4 -27.19,-75.34l0 -144.71 1029.89 0c11.73,0 19.47,-5.49 23.45,-16.72 1,-1.51 1.51,-3 1.76,-4.49 0.25,-1.51 0.49,-2.25 0.49,-2.76l0 -76.83c0,-10.24 -5.74,-17.46 -16.96,-21.96 -2.75,-1 -5.74,-1.49 -8.74,-1.49l-739.74 0c-116.76,0 -197.35,-28.94 -241.01,-86.83 -8.97,-10.72 -15.22,-20.71 -19.2,-30.19 -4.74,-9.23 -9.48,-20.46 -13.73,-34.19 -3.98,-12.72 -7.48,-28.18 -10.24,-46.89 -2.98,-19.96 -4.49,-49.41 -4.49,-88.32l0 -5.99c0,-94.06 7.99,-158.68 24.2,-194.36 8.23,-23.95 22.21,-46.16 41.66,-67.12 10.73,-12.22 20.22,-20.71 28.45,-25.7 28.19,-19.46 60.12,-32.93 95.79,-40.17 30.19,-7.24 62.62,-10.98 97.3,-10.98zm2069.79 0l214.07 0c43.4,0 79.84,17.96 109.02,54.15 7.74,10.72 17.46,27.19 29.19,49.63 2,3 3.74,5.74 4.99,8.74 4.49,6.75 41.92,72.61 112.78,197.35 19.96,35.68 42.65,76.1 68.62,121.26 160.42,283.17 242.75,427.88 246.99,434.36l85.58 152.7 -225.04 0c-59.63,0 -103.3,-27.95 -131.74,-84.09 -19.95,-34.17 -34.44,-59.38 -43.91,-76.08 -7.73,-13.97 -11.97,-21.71 -12.97,-22.46l-698.83 0c-1,0 -2,0.26 -3.24,1.26 -1.24,0.99 -1.98,2.98 -2.49,5.99l-65.86 115.5c-29.68,39.93 -69.1,59.89 -118.51,59.89l-222.79 0c-1.01,0 -1.5,0 -1.5,-0.25 0,-0.25 0,-0.76 0,-1.25 107.54,-190.61 201.33,-355.77 281.42,-495.5 63.38,-111.51 114.52,-201.83 153.44,-270.44 60.38,-106.78 92.06,-162.42 95.06,-166.67 7.72,-14.7 15.97,-27.68 24.94,-38.67 28.2,-30.43 61.88,-45.4 100.79,-45.4zm107.28 217.06l-228.79 402.67 457.57 0c-149.45,-261.97 -225.8,-396.44 -228.79,-402.67z"/>
  <path class="fil1" d="M9061.64 0l524.19 0c88.06,0 170.4,26.45 247,79.59 12.71,7.97 28.43,20.45 47.39,38.16 3,2.24 6.24,5 9.49,7.98 23.94,27.21 41.16,48.16 51.89,62.89 51.14,75.6 76.85,158.93 76.85,249.98l0 140.97c0,107.79 -34.94,203.58 -104.55,287.42 -21.94,23.69 -39.91,40.91 -54.13,51.14 -24.45,20.45 -49.41,37.17 -75.34,50.39 -63.38,33.18 -129.98,49.65 -200.1,49.65l-521.19 0c-94.05,0 -180.88,-28.94 -260.22,-87.08 -13.21,-10.23 -31.68,-26.94 -55.64,-50.4 -23.94,-25.7 -40.16,-46.65 -48.89,-62.87 -46.41,-71.61 -69.37,-149.94 -69.37,-235.28l0 -146.94c0,-99.8 31.69,-190.62 95.57,-271.96 9.23,-10.72 24.45,-27.19 45.4,-49.65 20.96,-17.95 38.91,-31.43 54.15,-40.16 74.59,-49.16 153.67,-73.85 237.5,-73.85zm-168.9 442.1l0 133.23c0,35.93 7.48,65.86 22.69,89.82 3,8.73 11.73,21.2 26.2,37.18 34.68,35.18 76.59,52.64 125.74,52.64l512.45 0c57.15,0 103.29,-22.96 138.97,-69.37 10.24,-13.21 18.21,-26.7 23.95,-40.16 7.99,-18.97 11.73,-43.42 11.73,-73.12l0 -124.24c0,-31.68 -3.24,-55.37 -10.23,-70.84 -14.97,-38.67 -40.42,-68.37 -75.84,-89.33 -26.95,-15.97 -55.88,-23.93 -87.07,-23.93l-515.21 0c-56.63,0 -103.54,23.69 -140.46,71.58 -10.24,14.49 -17.22,27.45 -21.2,38.69 -7.74,17.96 -11.73,40.67 -11.73,67.86z"/>
  <path class="fil0" d="M10792.03 0l782.9 0c35.93,0 64.62,15.46 85.58,46.65 9.23,16.21 13.73,32.94 13.73,50.65l0 166.67 -877.72 0c-56.63,0 -102.8,22.69 -138.97,68.61 -22.96,30.19 -34.43,64.11 -34.43,101.53l0 149.95c0,44.65 15.97,84.32 47.65,118.26 14.97,14.22 27.2,23.7 36.43,28.68 8.97,5.74 18.72,10.24 29.44,12.99 20.46,7.48 35.93,10.98 46.65,10.98l888.94 0 0 168.91c0,26.7 -11.97,51.14 -35.93,73.1 -18.47,14.21 -38.93,21.2 -61.38,21.2l-784.39 0c-89.58,0 -173.4,-27.45 -251.25,-82.58 -13.22,-9.23 -31.68,-25.21 -55.64,-47.65 -24.95,-26.7 -41.66,-47.65 -50.4,-62.62 -14.71,-22.46 -25.69,-41.92 -32.93,-58.65 -27.44,-56.39 -40.92,-119.75 -40.92,-190.11l0 -134.47c0,-76.35 16.47,-145.45 49.65,-206.82 8.73,-17.46 20.7,-37.42 35.94,-59.89 3.74,-4.49 7.97,-9.23 12.21,-14.72 7.49,-8.73 15.73,-18.2 24.96,-28.43 25.95,-25.21 46.9,-42.92 62.87,-52.64 27.19,-19.47 54.4,-34.94 81.09,-46.66 55.64,-21.96 110.76,-32.93 165.91,-32.93z"/>
  <path class="fil5" d="M26768.01 926.25c37.63,0 68.17,30.52 68.17,68.17 0,37.65 -30.54,68.18 -68.17,68.18 -37.65,0 -68.19,-30.53 -68.19,-68.18 0,-37.65 30.54,-68.17 68.19,-68.17z"/>
  <path class="fil5" d="M28667.29 926.25c37.65,0 68.17,30.52 68.17,68.17 0,37.65 -30.52,68.18 -68.17,68.18 -37.65,0 -68.18,-30.53 -68.18,-68.18 0,-37.65 30.53,-68.17 68.18,-68.17z"/>
 </g>
</svg>
